<svg width="30" height="31" viewBox="0 0 30 31" fill="none" xmlns="http://www.w3.org/2000/svg">
<path d="M8.91869 14.4862L4.16276 5.97565C3.6159 4.99706 3.34247 4.50777 3.38855 4.10716C3.42875 3.75764 3.61439 3.44125 3.89988 3.23565C4.22711 3 4.78762 3 5.90864 3H8.70217C9.11879 3 9.3271 3 9.51394 3.06017C9.67928 3.11341 9.8317 3.20052 9.9615 3.31595C10.1082 3.4464 10.2139 3.62588 10.4254 3.98484L14.9999 11.75L19.5744 3.98484C19.7859 3.62588 19.8916 3.4464 20.0383 3.31595C20.1681 3.20052 20.3205 3.11341 20.4858 3.06017C20.6727 3 20.881 3 21.2976 3H24.0911C25.2122 3 25.7727 3 26.0999 3.23565C26.3854 3.44125 26.571 3.75764 26.6112 4.10716C26.6573 4.50777 26.3839 4.99706 25.837 5.97565L21.0811 14.4862M13.1249 18L14.9999 16.75V23M13.4374 23H16.5624M20.7451 14.1298C23.9181 17.3028 23.9181 22.4472 20.7451 25.6202C17.5721 28.7933 12.4277 28.7933 9.25464 25.6202C6.08164 22.4472 6.08164 17.3028 9.25464 14.1298C12.4276 10.9567 17.5721 10.9567 20.7451 14.1298Z" stroke="#59C8C8" stroke-width="2.5" stroke-linecap="round" stroke-linejoin="round"/>
</svg>
