<svg xmlns="http://www.w3.org/2000/svg" version="1.1" xmlns:xlink="http://www.w3.org/1999/xlink" width="512" height="512" x="0" y="0" viewBox="0 0 480.045 480.045" style="enable-background:new 0 0 512 512" xml:space="preserve" class=""><g><path d="M347.996.003C281.21.473 226.382 55.187 225.777 121.97c-.334 36.802 15.314 71.014 43.128 94.743a80.8 80.8 0 0 1-7.032 14.155c-8.246 13.178.279 30.47 15.752 31.99a8 8 0 0 0 1.564-15.924c-3.659-.359-5.697-4.472-3.752-7.58a96.873 96.873 0 0 0 10.488-22.977 8 8 0 0 0-2.737-8.661c-26.624-20.705-41.718-51.906-41.411-85.603.526-58.101 48.228-105.702 106.333-106.111 59.935-.364 107.884 47.985 107.884 107.108 0 89.935-73.023 114.995-116.552 121.929a8 8 0 0 0-6.642 9.159c.694 4.362 4.785 7.332 9.159 6.642 78.417-12.492 130.034-58.731 130.034-137.729 0-67.85-55.059-123.562-123.997-123.108z" fill="#000000" opacity="1" data-original="#000000" class=""></path><path d="M352.993 67h-8c-13.233 0-24 10.767-24 24v13h-13c-13.233 0-24 10.767-24 24v8c0 13.233 10.767 24 24 24h13v13c0 13.233 10.767 24 24 24h8c13.233 0 24-10.767 24-24v-13h13c13.233 0 24-10.767 24-24v-8c0-13.233-10.767-24-24-24h-13V91c0-13.234-10.766-24-24-24zm37 53c4.411 0 8 3.589 8 8v8c0 4.411-3.589 8-8 8h-21a8 8 0 0 0-8 8v21c0 4.411-3.589 8-8 8h-8c-4.411 0-8-3.589-8-8v-21a8 8 0 0 0-8-8h-21c-4.411 0-8-3.589-8-8v-8c0-4.411 3.589-8 8-8h21a8 8 0 0 0 8-8V91c0-4.411 3.589-8 8-8h8c4.411 0 8 3.589 8 8v21a8 8 0 0 0 8 8zM343.833 312.734c-14.839-8.482-33.716-5.89-45.907 6.299-2.89 2.895-19.013 32.927-59.17 17.945-42.462-15.841-80.114-73.005-49.921-106.359 5.678-6.185 9.486-7.936 11.056-9.502 12.226-12.227 14.84-31.129 6.357-45.967-14.014-24.519-34.406-44.904-58.973-58.955-14.574-8.335-33.413-5.732-45.813 6.323-96.689 93.814-14.623 249.197 100.033 311.459-24.475 31.562-67.063 36.733-96.382 22.616 9.138-8.791 14.927-20.035 15.559-31.863.781-14.882-4.648-26.826-14.896-32.771-19.391-11.244-46.455 3.615-43.593 32.461 1.153 11.596 6.339 22.279 14.604 31.121a49.95 49.95 0 0 1-6.119 1.736c-9.497 2.048-33.137 3.821-47.513-23.906a8.002 8.002 0 0 0-14.205 7.365c13.497 26.032 37.827 38.059 65.093 32.181a66.19 66.19 0 0 0 16.673-6.017c7.502 4.677 16.222 8.288 25.857 10.54 38.292 8.95 80.4-5.196 103.463-42.127 2.497-3.996 1.012-9.293-3.221-11.399C106.454 368.99 23.062 220.882 112.61 133.996c7.32-7.118 18.308-8.725 26.722-3.912 22.092 12.635 40.428 30.964 53.026 53.007 4.803 8.4 3.422 19.091-3.316 26.233a75.82 75.82 0 0 0-4.474 3.395 254.172 254.172 0 0 0-53.549-59.338 7.996 7.996 0 0 0-11.249 1.2 7.999 7.999 0 0 0 1.2 11.249 238.34 238.34 0 0 1 52.217 58.772c-50.263 68.335 79.934 185.939 136.466 105.343 7.107-6.756 17.813-8.137 26.241-3.32 22.042 12.6 40.371 30.937 53.005 53.026 4.813 8.415 3.205 19.403-3.909 26.72a142.34 142.34 0 0 1-3.538 3.509c-13.142-20.348-29.114-38.724-47.585-54.714a7.998 7.998 0 0 0-11.284.812 7.999 7.999 0 0 0 .812 11.284c17.858 15.46 33.216 33.296 45.747 53.08-36.425 27.265-76.487 26.6-105.314 20.387a8 8 0 0 0-3.371 15.641c54.001 11.639 100.792-2.647 136.005-38.843 12.061-12.405 14.662-31.246 6.327-45.818-14.05-24.567-34.436-44.96-58.956-58.975zm-239.138 111.15c-.465 8.7-5.563 17.174-13.383 23.547-7.559-6.855-12.289-15.356-13.207-24.591-1.571-15.824 11.514-21.757 19.644-17.039 4.941 2.866 7.407 9.291 6.946 18.083z" fill="#000000" opacity="1" data-original="#000000" class=""></path></g></svg>