<svg width="56" height="56" viewBox="0 0 56 56" fill="none" xmlns="http://www.w3.org/2000/svg">
<path d="M33.2489 4.6665H19.8192C19.4004 4.6665 19.191 4.6665 19.0062 4.73027C18.8427 4.78666 18.6938 4.87868 18.5703 4.99968C18.4306 5.13651 18.3369 5.3238 18.1496 5.69837L8.34963 25.2984C7.90237 26.1929 7.67875 26.6401 7.73246 27.0037C7.77937 27.3212 7.95496 27.6053 8.21794 27.7892C8.51909 27.9998 9.01914 27.9998 10.0192 27.9998H24.4989L17.4989 51.3332L45.9495 21.8289C46.9093 20.8335 47.3892 20.3358 47.4173 19.9099C47.4417 19.5402 47.289 19.181 47.006 18.9419C46.68 18.6665 45.9886 18.6665 44.6057 18.6665H27.9989L33.2489 4.6665Z" stroke="#A17FC7" stroke-width="4" stroke-linecap="round" stroke-linejoin="round"/>
</svg>
