<svg width="30" height="31" viewBox="0 0 30 31" fill="none" xmlns="http://www.w3.org/2000/svg">
<g clip-path="url(#clip0_1_1110)">
<path d="M9.95 9.57125C11.6962 8.2625 14.14 7.6825 16.51 8.1725C18.065 8.495 19.8725 9.1625 21.3062 10.6625C22.7612 12.1838 23.6938 14.4175 23.7488 17.5975C23.7963 20.3175 22.51 23.2475 20.7838 25.2625C19.9138 26.2787 18.8675 27.1413 17.7213 27.6125C16.55 28.0963 15.2275 28.1863 13.98 27.54C12.8638 26.9625 12.1287 26.21 11.7675 25.2725C11.42 24.3738 11.4888 23.4825 11.5988 22.7825L11.6488 22.4937L11.79 21.7812C11.8525 21.4688 11.9013 21.2075 11.9263 20.9662C11.9763 20.4875 11.9163 20.2375 11.8013 20.0588C11.5237 19.6287 11.1712 19.3713 10.6512 19.0337L9.965 18.59L9.6325 18.3625C8.845 17.7987 8.01 16.9962 7.665 15.5637C7.05875 13.0575 8.1775 10.9012 9.95 9.57125ZM16.0038 10.6213C14.3225 10.2738 12.6125 10.7 11.4488 11.5713C10.3138 12.4225 9.7675 13.6225 10.095 14.9775C10.25 15.6187 10.5788 15.9737 11.1438 16.3687L11.4887 16.5975L12.0775 16.9725C12.68 17.3688 13.39 17.91 13.9025 18.705C14.4587 19.5675 14.49 20.4825 14.4125 21.225C14.3865 21.466 14.3507 21.7057 14.305 21.9438L14.1075 22.9438C14.0936 23.0194 14.0807 23.0953 14.0688 23.1712C13.98 23.7362 13.9938 24.0962 14.0988 24.3725C14.19 24.6075 14.415 24.95 15.1287 25.32C15.5837 25.555 16.1163 25.5712 16.7663 25.3025C17.4412 25.0237 18.1838 24.455 18.885 23.6375C20.3013 21.9837 21.285 19.6275 21.2488 17.6413C21.2025 14.9488 20.4312 13.365 19.4987 12.39C18.5475 11.3938 17.2863 10.8863 16.0038 10.6213ZM6.25 4.875C6.91304 4.875 7.54893 5.13839 8.01777 5.60723C8.48661 6.07607 8.75 6.71196 8.75 7.375C8.75 8.03804 8.48661 8.67393 8.01777 9.14277C7.54893 9.61161 6.91304 9.875 6.25 9.875C5.58696 9.875 4.95107 9.61161 4.48223 9.14277C4.01339 8.67393 3.75 8.03804 3.75 7.375C3.75 6.71196 4.01339 6.07607 4.48223 5.60723C4.95107 5.13839 5.58696 4.875 6.25 4.875ZM23.125 6.125C23.4565 6.125 23.7745 6.2567 24.0089 6.49112C24.2433 6.72554 24.375 7.04348 24.375 7.375C24.375 7.70652 24.2433 8.02446 24.0089 8.25888C23.7745 8.4933 23.4565 8.625 23.125 8.625C22.7935 8.625 22.4755 8.4933 22.2411 8.25888C22.0067 8.02446 21.875 7.70652 21.875 7.375C21.875 7.04348 22.0067 6.72554 22.2411 6.49112C22.4755 6.2567 22.7935 6.125 23.125 6.125ZM11.875 3C12.1212 3 12.365 3.0485 12.5925 3.14273C12.82 3.23695 13.0267 3.37506 13.2008 3.54917C13.3749 3.72328 13.513 3.92998 13.6073 4.15747C13.7015 4.38495 13.75 4.62877 13.75 4.875C13.75 5.12123 13.7015 5.36505 13.6073 5.59253C13.513 5.82002 13.3749 6.02672 13.2008 6.20083C13.0267 6.37494 12.82 6.51305 12.5925 6.60727C12.365 6.7015 12.1212 6.75 11.875 6.75C11.3777 6.75 10.9008 6.55246 10.5492 6.20083C10.1975 5.84919 10 5.37228 10 4.875C10 4.37772 10.1975 3.90081 10.5492 3.54917C10.9008 3.19754 11.3777 3 11.875 3ZM18.125 3C18.3712 3 18.615 3.0485 18.8425 3.14273C19.07 3.23695 19.2767 3.37506 19.4508 3.54917C19.6249 3.72328 19.763 3.92998 19.8573 4.15747C19.9515 4.38495 20 4.62877 20 4.875C20 5.12123 19.9515 5.36505 19.8573 5.59253C19.763 5.82002 19.6249 6.02672 19.4508 6.20083C19.2767 6.37494 19.07 6.51305 18.8425 6.60727C18.615 6.7015 18.3712 6.75 18.125 6.75C17.6277 6.75 17.1508 6.55246 16.7992 6.20083C16.4475 5.84919 16.25 5.37228 16.25 4.875C16.25 4.37772 16.4475 3.90081 16.7992 3.54917C17.1508 3.19754 17.6277 3 18.125 3Z" fill="#59C8C8"/>
</g>
<defs>
<clipPath id="clip0_1_1110">
<rect width="30" height="30" fill="white" transform="translate(0 0.5)"/>
</clipPath>
</defs>
</svg>
