<svg width="30" height="31" viewBox="0 0 30 31" fill="none" xmlns="http://www.w3.org/2000/svg">
<path d="M21.25 18.625V14.868C21.25 14.6436 21.25 14.5315 21.2158 14.4324C21.1856 14.3449 21.1363 14.2651 21.0715 14.1989C20.9982 14.1241 20.8979 14.0739 20.6972 13.9736L15 11.125M5 12.375V20.8832C5 21.3481 5 21.5806 5.07252 21.7841C5.13664 21.964 5.24113 22.1268 5.37797 22.2601C5.53277 22.4108 5.74409 22.5077 6.16669 22.7014L14.1667 26.368C14.4732 26.5085 14.6265 26.5788 14.7862 26.6065C14.9277 26.6311 15.0723 26.6311 15.2138 26.6065C15.3735 26.5788 15.5268 26.5085 15.8333 26.368L23.8333 22.7014C24.2559 22.5077 24.4672 22.4108 24.622 22.2601C24.7589 22.1268 24.8634 21.964 24.9275 21.7841C25 21.5806 25 21.3481 25 20.8832V12.375M2.5 11.125L14.5528 5.09857C14.7168 5.01658 14.7988 4.97558 14.8848 4.95945C14.9609 4.94516 15.0391 4.94516 15.1152 4.95945C15.2012 4.97558 15.2832 5.01658 15.4472 5.09857L27.5 11.125L15.4472 17.1514C15.2832 17.2333 15.2012 17.2743 15.1152 17.2905C15.0391 17.3048 14.9609 17.3048 14.8848 17.2905C14.7988 17.2743 14.7168 17.2333 14.5528 17.1514L2.5 11.125Z" stroke="#59C8C8" stroke-width="2.5" stroke-linecap="round" stroke-linejoin="round"/>
</svg>
