<svg width="30" height="31" viewBox="0 0 30 31" fill="none" xmlns="http://www.w3.org/2000/svg">
<path d="M15 6.125C15 5.71462 14.9192 5.30826 14.7621 4.92912C14.6051 4.54997 14.3749 4.20548 14.0847 3.91529C13.7945 3.62511 13.45 3.39492 13.0709 3.23788C12.6917 3.08083 12.2854 3 11.875 3C11.1454 2.99922 10.4385 3.25376 9.87683 3.71951C9.31519 4.18525 8.93423 4.83284 8.79998 5.55C8.38792 5.6272 7.99561 5.78652 7.6464 6.01848C7.29719 6.25044 6.99822 6.55029 6.76729 6.90018C6.53636 7.25007 6.3782 7.64285 6.30221 8.05513C6.22622 8.46741 6.23396 8.89077 6.32498 9.3C5.76081 9.40016 5.23503 9.6535 4.80514 10.0323C4.37524 10.4112 4.05778 10.9009 3.88746 11.448C3.71714 11.9951 3.70051 12.5785 3.8394 13.1344C3.97829 13.6903 4.26736 14.1973 4.67498 14.6C3.98939 14.9165 3.41534 15.4326 3.02794 16.0808C2.64054 16.729 2.45784 17.479 2.50377 18.2327C2.5497 18.9865 2.8221 19.7088 3.28533 20.3051C3.74856 20.9015 4.38104 21.3441 5.09998 21.575C4.96271 22.0936 4.96124 22.6387 5.09571 23.158C5.23018 23.6773 5.49606 24.1533 5.86777 24.5401C6.23947 24.9268 6.70447 25.2114 7.21802 25.3664C7.73157 25.5214 8.27637 25.5416 8.79998 25.425C8.93891 26.1924 9.35974 26.8801 9.97979 27.353C10.5999 27.8259 11.3743 28.05 12.1511 27.981C12.9279 27.9121 13.6509 27.5553 14.178 26.9806C14.7051 26.4059 14.9983 25.6548 15 24.875M15 6.125V24.875M15 6.125C15 5.2962 15.3292 4.50134 15.9153 3.91529C16.5013 3.32924 17.2962 3 18.125 3C18.8546 2.99922 19.5615 3.25376 20.1231 3.71951C20.6848 4.18525 21.0657 4.83284 21.2 5.55C21.612 5.6272 22.0043 5.78652 22.3536 6.01848C22.7028 6.25044 23.0017 6.55029 23.2327 6.90018C23.4636 7.25007 23.6218 7.64285 23.6978 8.05513C23.7737 8.46741 23.766 8.89077 23.675 9.3C24.2392 9.40016 24.7649 9.6535 25.1948 10.0323C25.6247 10.4112 25.9422 10.9009 26.1125 11.448C26.2828 11.9951 26.2994 12.5785 26.1606 13.1344C26.0217 13.6903 25.7326 14.1973 25.325 14.6C26.0106 14.9165 26.5846 15.4326 26.972 16.0808C27.3594 16.729 27.5421 17.479 27.4962 18.2327C27.4503 18.9865 27.1779 19.7088 26.7146 20.3051C26.2514 20.9015 25.6189 21.3441 24.9 21.575C25.0372 22.0936 25.0387 22.6387 24.9042 23.158C24.7698 23.6773 24.5039 24.1533 24.1322 24.5401C23.7605 24.9268 23.2955 25.2114 22.7819 25.3664C22.2684 25.5214 21.7236 25.5416 21.2 25.425C21.061 26.1924 20.6402 26.8801 20.0202 27.353C19.4001 27.8259 18.6256 28.05 17.8488 27.981C17.0721 27.9121 16.3491 27.5553 15.822 26.9806C15.2949 26.4059 15.0017 25.6548 15 24.875" stroke="#59C8C8" stroke-width="2.5" stroke-linecap="round" stroke-linejoin="round"/>
</svg>
