<svg width="22" height="27" viewBox="0 0 22 27" fill="none" xmlns="http://www.w3.org/2000/svg">
<path d="M21 11.2273C21 19.1818 11 26 11 26C11 26 1 19.1818 1 11.2273C1 8.51483 2.05357 5.91348 3.92893 3.9955C5.8043 2.07751 8.34784 1 11 1C13.6522 1 16.1957 2.07751 18.0711 3.9955C19.9464 5.91348 21 8.51483 21 11.2273Z" stroke="#FF791F" stroke-linecap="round" stroke-linejoin="round"/>
<path d="M11 14.6364C12.841 14.6364 14.3334 13.1101 14.3334 11.2273C14.3334 9.34454 12.841 7.81824 11 7.81824C9.15907 7.81824 7.66669 9.34454 7.66669 11.2273C7.66669 13.1101 9.15907 14.6364 11 14.6364Z" stroke="#FF791F" stroke-linecap="round" stroke-linejoin="round"/>
</svg>
