<?xml version="1.0" standalone="no"?>
<!DOCTYPE svg PUBLIC "-//W3C//DTD SVG 20010904//EN"
 "http://www.w3.org/TR/2001/REC-SVG-20010904/DTD/svg10.dtd">
<svg version="1.0" xmlns="http://www.w3.org/2000/svg"
 width="32.000000pt" height="32.000000pt" viewBox="0 0 32.000000 32.000000"
 preserveAspectRatio="xMidYMid meet">

<g transform="translate(0.000000,32.000000) scale(0.100000,-0.100000)"
fill="#000000" stroke="none">
<path d="M50 308 c-41 -22 -51 -54 -48 -160 3 -86 6 -100 26 -120 21 -21 31
-23 132 -23 101 0 111 2 132 23 20 20 23 34 26 126 4 98 2 104 -21 132 -24 28
-29 29 -124 32 -66 2 -106 -2 -123 -10z m220 -38 c17 -17 20 -33 20 -110 0
-77 -3 -93 -20 -110 -17 -17 -33 -20 -110 -20 -77 0 -93 3 -110 20 -17 17 -20
33 -20 110 0 77 3 93 20 110 17 17 33 20 110 20 77 0 93 -3 110 -20z"/>
<path d="M230 245 c0 -8 7 -15 15 -15 8 0 15 7 15 15 0 8 -7 15 -15 15 -8 0
-15 -7 -15 -15z"/>
<path d="M105 215 c-50 -49 -15 -135 55 -135 70 0 105 86 55 135 -15 16 -36
25 -55 25 -19 0 -40 -9 -55 -25z m93 -17 c15 -15 15 -61 0 -76 -15 -15 -61
-15 -76 0 -15 15 -15 61 0 76 7 7 24 12 38 12 14 0 31 -5 38 -12z"/>
</g>
</svg>
