<?xml version="1.0" standalone="no"?>
<!DOCTYPE svg PUBLIC "-//W3C//DTD SVG 20010904//EN"
 "http://www.w3.org/TR/2001/REC-SVG-20010904/DTD/svg10.dtd">
<svg version="1.0" xmlns="http://www.w3.org/2000/svg"
 width="32.000000pt" height="32.000000pt" viewBox="0 0 32.000000 32.000000"
 preserveAspectRatio="xMidYMid meet">

<g transform="translate(0.000000,32.000000) scale(0.100000,-0.100000)"
fill="#000000" stroke="none">
<path d="M110 243 c0 -5 5 -14 11 -20 7 -7 9 -23 5 -38 -5 -21 -10 -24 -20
-16 -8 7 -19 25 -26 41 -10 25 -18 30 -46 30 -19 0 -34 -3 -34 -6 0 -15 61
-111 83 -132 13 -13 41 -25 61 -29 32 -5 38 -3 43 16 7 26 15 27 38 1 12 -13
31 -20 57 -20 21 0 38 3 38 6 0 3 -12 21 -26 40 l-27 34 27 38 c14 21 26 41
26 45 0 4 -18 7 -40 7 -22 0 -40 -3 -40 -7 0 -5 -10 -24 -22 -43 l-23 -35 -5
45 c-5 44 -6 45 -42 48 -21 2 -38 -1 -38 -5z"/>
</g>
</svg>
